PathFileType	4	(X/Y/Z)	D:\Share\Shared_Data\Ergonomics\Sit To Stand Pertubation\S3\Unperturbed.trc
DataRate	CameraRate	NumFrames	NumMarkers	Units	OrigDataRate	OrigDataStartFrame	OrigNumFrames	
100	100	14	18	m	100	2212	211
Frame#	Time	R_Thigh			R_ASIS			R_Pelvis			V_Sacral			L_Pelvis			L_ASIS			Clavical			R_Acromium			L_Acromium			Sternum			Torso			R_Thigh_Med			R_Thigh_Lat			R_Shank_Med			R_Shank_Lat			R_Shank			R_Heel			R_Toe			
		X1	Y1	Z1	X2	Y2	Z2	X3	Y3	Z3	X4	Y4	Z4	X5	Y5	Z5	X6	Y6	Z6	X7	Y7	Z7	X8	Y8	Z8	X9	Y9	Z9	X10	Y10	Z10	X11	Y11	Z11	X12	Y12	Z12	X13	Y13	Z13	X14	Y14	Z14	X15	Y15	Z15	X16	Y16	Z16	X17	Y17	Z17	X18	Y18	Z18	

2212	22.11	0.29028204	0.64427502	0.11177459	0.18989934	0.77423718	0.13039995	0.095143318	0.82480432	0.18524861	0.0076853547	0.88232391	-0.010458981	0.11346924	0.83651575	-0.21082529	0.19826746	0.77246625	-0.14845618	0.3926333	1.1328367	-0.015724917	0.38362558	1.2169011	0.14342975	0.39555707	1.2080887	-0.16368323	0.37598944	1.0497666	-0.0097458839	0.39087708	1.1147606	-0.076628914	0.39039877	0.45913782	0.084283981	0.35781985	0.43673712	0.18725491	0.26059253	0.10617076	0.092511322	0.23556085	0.097457657	0.17161853	0.27607391	0.2705502	0.19423975	0.17926689	0.050051678	0.12258503	0.39818875	0.049411541	0.13518347
2213	22.12	0.29411771	0.64657147	0.11192461	0.19492908	0.78242432	0.13011636	0.099565979	0.83189154	0.18455423	0.012275025	0.88939398	-0.010891181	0.11826381	0.84374377	-0.21104646	0.20334271	0.78049792	-0.14858289	0.3943006	1.1441903	-0.016041252	0.38407858	1.2278947	0.14325381	0.39583475	1.2190924	-0.16431435	0.37850247	1.0609329	-0.010311518	0.39294666	1.1260662	-0.07695076	0.38986163	0.4595376	0.084166351	0.35697958	0.43737686	0.18641969	0.26051288	0.10622311	0.092548058	0.23549466	0.097535522	0.17161006	0.27539865	0.27103827	0.19383136	0.17927232	0.050135899	0.12267406	0.3981713	0.049398018	0.13517389
2214	22.13	0.29787454	0.64880493	0.11209801	0.20003221	0.79062262	0.12982735	0.10405634	0.83889642	0.18386258	0.016889936	0.89632227	-0.011330837	0.12313176	0.85087988	-0.21128424	0.2085209	0.78853986	-0.14872705	0.39577588	1.1555828	-0.016327864	0.38429266	1.2389137	0.14309897	0.39595129	1.2300809	-0.1649238	0.38094376	1.072177	-0.010713431	0.39482547	1.1374082	-0.077244919	0.38918201	0.45994235	0.084043327	0.3560014	0.43805551	0.18560629	0.26043359	0.10627305	0.092584602	0.23541972	0.097640427	0.17158592	0.27464209	0.2715498	0.19341724	0.17928209	0.05021796	0.1227442	0.39815146	0.049386757	0.13517841
2215	22.14	0.30155222	0.65097784	0.11230192	0.20520076	0.79880927	0.1295244	0.10863071	0.8458103	0.18318439	0.021532982	0.90310699	-0.011788031	0.12806609	0.85790582	-0.21154028	0.21380701	0.79655951	-0.14889049	0.39705847	1.1669788	-0.016585287	0.38425735	1.2499252	0.14296715	0.39590387	1.2410183	-0.16551529	0.38330484	1.0834652	-0.01093431	0.39650571	1.1487535	-0.077521629	0.38837354	0.46035388	0.083902199	0.35489099	0.43877432	0.18481044	0.26035864	0.10632058	0.092622879	0.23533621	0.097769913	0.17155408	0.27381622	0.27208398	0.19299934	0.17929868	0.050302788	0.12279847	0.39812933	0.049382385	0.13520131
2216	22.15	0.3051532	0.65309137	0.11254353	0.21042642	0.80696283	0.12920398	0.11329807	0.85262842	0.18252792	0.026205494	0.90973895	-0.012265514	0.13305737	0.86480457	-0.21181334	0.21920685	0.80452344	-0.14907616	0.39814948	1.1783452	-0.016814127	0.38396341	1.2608955	0.14286093	0.39568359	1.2518734	-0.16609335	0.38554321	1.0947499	-0.011013271	0.39798648	1.1600723	-0.077789711	0.38745233	0.46077802	0.083732895	0.35365588	0.43953354	0.1840218	0.26029233	0.10636585	0.092664719	0.23524982	0.097916527	0.17152478	0.27293445	0.27263928	0.19257646	0.17932339	0.050393284	0.12283977	0.39810498	0.049392284	0.13524686
2217	22.16	0.30868155	0.65514349	0.11282896	0.21569963	0.81506293	0.12886751	0.11805975	0.85934875	0.18189894	0.030906719	0.91620422	-0.012762239	0.13809935	0.87156177	-0.21209772	0.22472046	0.81240088	-0.14928653	0.39905148	1.1896503	-0.017015436	0.38340488	1.2717892	0.14278345	0.39527884	1.2626205	-0.16666257	0.38760727	1.1059813	-0.011016649	0.39927267	1.1713375	-0.078056145	0.38643512	0.4612222	0.083526108	0.35230557	0.44033228	0.18322502	0.26023831	0.106409	0.092711166	0.23517033	0.098069397	0.17150974	0.27200787	0.27321307	0.1921442	0.17935597	0.050490128	0.12287055	0.39807803	0.049426533	0.13531935
2218	22.17	0.31214188	0.6571275	0.11316065	0.22100987	0.82309082	0.12851953	0.12291084	0.86597064	0.18129982	0.035633648	0.92248645	-0.013275084	0.14319028	0.87816522	-0.21238617	0.23033934	0.82016736	-0.14952226	0.3997692	1.2008633	-0.017190975	0.3825813	1.2825703	0.14273787	0.39467899	1.2732368	-0.16722652	0.38946927	1.1171226	-0.011001155	0.40037357	1.1825237	-0.078326805	0.38533746	0.46169272	0.083271027	0.35085144	0.4411684	0.18240096	0.26019904	0.10645008	0.092761841	0.235104	0.098218407	0.17152031	0.27104471	0.27380273	0.19169542	0.17939496	0.050592571	0.12289278	0.39804745	0.049498272	0.1354234
2219	22.18	0.31553873	0.65903198	0.11353445	0.22634933	0.83103021	0.12816568	0.12784222	0.87249261	0.18072894	0.040381268	0.92856897	-0.013799566	0.14832875	0.88460443	-0.21267409	0.23604814	0.82780493	-0.14978197	0.40030911	1.2119523	-0.017343199	0.3814975	1.2932006	0.14272568	0.3938797	1.2837003	-0.16778654	0.39113388	1.1281488	-0.011002467	0.40130127	1.1936052	-0.078606743	0.38417224	0.4621926	0.082954216	0.3493056	0.44203879	0.18152864	0.26017523	0.10648905	0.092814743	0.23504892	0.098357849	0.17156396	0.27004935	0.27440582	0.19122112	0.17943832	0.050699558	0.12290764	0.39801227	0.049623501	0.13556378
2220	22.19	0.31887631	0.66084412	0.11393797	0.23172075	0.83886829	0.12781162	0.13284183	0.87890991	0.18018025	0.045143135	0.93443634	-0.014330779	0.15350993	0.89087042	-0.21295799	0.24182814	0.83530023	-0.15006259	0.40068027	1.2228849	-0.017474812	0.38016434	1.3036415	0.14274576	0.39288647	1.2939865	-0.16834091	0.39262845	1.1390403	-0.011038146	0.40207022	1.2045541	-0.078899559	0.38294824	0.46272049	0.082560257	0.34767841	0.44293933	0.18058846	0.26016553	0.10652583	0.092866516	0.23499962	0.09848674	0.17164154	0.26902307	0.27502151	0.19071156	0.17948393	0.050810497	0.12291574	0.39797256	0.049818489	0.1357438
2221	22.2	0.32215784	0.66255237	0.11435068	0.23714412	0.84659497	0.12746325	0.13789485	0.88521191	0.17964395	0.049912373	0.94007495	-0.014863652	0.15872641	0.89695508	-0.2132318	0.24766005	0.84264191	-0.15035988	0.40089426	1.2336255	-0.017588156	0.37859918	1.3138525	0.14279469	0.39171432	1.3040676	-0.16888562	0.39398822	1.1497749	-0.011113078	0.40269702	1.2153398	-0.079206627	0.38167105	0.46327133	0.082073463	0.34597769	0.44386557	0.17956525	0.26016702	0.10656023	0.092913216	0.23495042	0.098607101	0.17174753	0.2679649	0.27565076	0.19015773	0.17952972	0.050925354	0.12291733	0.39793079	0.050093849	0.13596277
2222	22.21	0.32538519	0.66414899	0.11474512	0.24265369	0.85419922	0.12712727	0.14298404	0.89138025	0.17910835	0.054683018	0.94547327	-0.015392679	0.16397153	0.90285034	-0.21348503	0.25352666	0.84981842	-0.15066872	0.40096423	1.2441365	-0.017684841	0.37682751	1.3237948	0.14286765	0.39038437	1.3139138	-0.16941675	0.39524091	1.1603232	-0.011228168	0.4031976	1.2259286	-0.07952742	0.38034293	0.46383704	0.081479202	0.34420959	0.44481305	0.1784505	0.26017554	0.10659198	0.092951057	0.23489543	0.098722298	0.17187276	0.26687192	0.27629605	0.18955247	0.17957315	0.051044399	0.12291277	0.39789297	0.050445881	0.13621245
2223	22.22	0.32855887	0.66562866	0.11508907	0.24827965	0.8616626	0.12681159	0.14808951	0.89738788	0.17856288	0.05945055	0.9506203	-0.015912632	0.16924135	0.908547	-0.2137038	0.25941403	0.85681696	-0.15098268	0.40090347	1.2543792	-0.017765783	0.37488199	1.3334291	0.14295967	0.38892026	1.3234935	-0.16993182	0.39640152	1.1706498	-0.011383119	0.40358304	1.2362836	-0.079860497	0.37896353	0.46440601	0.080764633	0.34237988	0.44577716	0.17724275	0.26018555	0.10662038	0.092976982	0.23483185	0.098835167	0.17200565	0.26573932	0.27695923	0.18889139	0.17961147	0.051167797	0.12290289	0.39786813	0.050847198	0.13647408
2224	22.23	0.33167926	0.6669881	0.11534817	0.25402335	0.86895477	0.12652444	0.15319072	0.90319904	0.17800337	0.064211395	0.95550427	-0.016419769	0.17453506	0.91403485	-0.21387393	0.26531171	0.8636225	-0.15129427	0.40072339	1.2643168	-0.017831263	0.37280017	1.3427191	0.14306671	0.38734735	1.3327742	-0.17042856	0.39747644	1.180718	-0.011573077	0.40385938	1.2463673	-0.080202629	0.37753015	0.46496362	0.079919144	0.34049628	0.44675211	0.17594772	0.26019073	0.10664447	0.092988846	0.23476164	0.098947578	0.17213223	0.26456213	0.27764017	0.18817334	0.17964214	0.051295322	0.12288843	0.3978649	0.051238468	0.136717
2225	22.24	0.33474887	0.66822528	0.11548991	0.25984903	0.87603455	0.12627189	0.15827267	0.90877197	0.17743765	0.068962524	0.96011237	-0.016912342	0.17985391	0.91930402	-0.21398608	0.27121265	0.87021802	-0.15159537	0.4004321	1.273916	-0.017881149	0.37062091	1.3516313	0.14318567	0.3856925	1.3417244	-0.17090244	0.39846542	1.1904948	-0.011788591	0.40402789	1.2561429	-0.080547531	0.37603824	0.46549219	0.078934624	0.33856836	0.44772989	0.17457745	0.26018411	0.10666294	0.09298587	0.2346889	0.099061386	0.17223982	0.26333798	0.27833636	0.18740009	0.17966327	0.051425823	0.12286892	0.39788815	0.051534111	0.13690404
